<svg id="groundFG2" xmlns="http://www.w3.org/2000/svg" xmlns:xlink="http://www.w3.org/1999/xlink" viewBox="0 0 9074.57 1014.14"><defs><style>.cls-1{fill:url(#linear-gradient);}.cls-2{fill:url(#linear-gradient-2);}.cls-3{fill:url(#linear-gradient-3);}.cls-4{font-size:35.71px;fill:#fff;font-family:AcadianRunes-Regular, Acadian Runes;}</style><linearGradient id="linear-gradient" x1="7229" y1="0.29" x2="7229" y2="1001.04" gradientUnits="userSpaceOnUse"><stop offset="0.02" stop-color="#fff"/><stop offset="0.07" stop-color="#fff" stop-opacity="0.9"/><stop offset="0.23" stop-color="#fff" stop-opacity="0.59"/><stop offset="0.37" stop-color="#fff" stop-opacity="0.33"/><stop offset="0.49" stop-color="#fff" stop-opacity="0.15"/><stop offset="0.59" stop-color="#fff" stop-opacity="0.04"/><stop offset="0.64" stop-color="#fff" stop-opacity="0"/></linearGradient><linearGradient id="linear-gradient-2" x1="5347.07" y1="749.55" x2="6442.27" y2="749.55" gradientUnits="userSpaceOnUse"><stop offset="0.36" stop-opacity="0.7"/><stop offset="0.85" stop-opacity="0"/></linearGradient><linearGradient id="linear-gradient-3" x1="3826.5" y1="1012.08" x2="3826.5" y2="721.8" gradientUnits="userSpaceOnUse"><stop offset="0.07" stop-color="#fff"/><stop offset="0.27" stop-color="#f8f8f8" stop-opacity="0.8"/><stop offset="0.7" stop-color="#f9f9f9" stop-opacity="0.3"/><stop offset="1" stop-opacity="0"/></linearGradient></defs><polygon class="cls-1" points="7725.48 0.29 8015.74 1001.04 6442.27 999.31 6442.27 683.16 6506.51 587.12 6595.1 564.66 6801.36 36.87 7725.48 0.29"/><polygon class="cls-2" points="6442.27 683.16 6442.27 999.31 5347.07 999.31 5347.07 499.79 5572.87 499.79 5565.99 809.67 5827.85 798.6 5826.51 784.26 5844.65 785.51 5946.29 740.59 6380.49 775.52 6442.27 683.16"/><rect class="cls-3" x="3396.2" y="721.8" width="860.61" height="290.28"/><path d="M3440.26,779.9a1,1,0,0,0,1-1.11c0-.11,0-.21,0-.31s0-.06,0-.09a133.16,133.16,0,0,0-5.52-23.55c-1.28-3.81-2.77-7.53-4.33-11.22a0,0,0,0,1,0,0c-.2-2.78-.37-5.55-.48-8.34l-.06-1.39a9.7,9.7,0,0,0,8-7.18,9.47,9.47,0,0,0-.33-3.54c-.25-1.47-.49-2.93-.74-4.4l-1.53-9.25c-1.17-7-2.26-14.18-1.92-21.25,1.3-2.78,2-6.76,3.87-9.58l.93-2.57a.76.76,0,0,0,.95-.56,93.22,93.22,0,0,0,3-28.51,1.06,1.06,0,0,0-1.79-.73,5.19,5.19,0,0,1-1.7,1c-.44-2.83-.94-5.65-1.42-8.48a1.12,1.12,0,0,0-1.85-.47c-3,3-6,6-9.09,8.91-.45-2.47-1-4.92-1.56-7.34-.33-1.39-.69-2.77-1.08-4.15-3,2.91-6.5,5.15-9.89,5.47a9.42,9.42,0,0,1-2.06.42c0,.41,0,.83,0,1.24,0,.14,0,.24,0,.31-.1.43-.18.85-.31,1.26,0,.12-.07.24-.11.36a7.67,7.67,0,0,0-.61,1.26c-.18.3-.38.59-.57.89-.13.15-.3.38-.35.44-.29.33-.6.64-.91.94l-.41.38-.26.23-.76.55c-.31.2-.63.39-1,.58s-.86.43-1.29.67l-.76.28a22.43,22.43,0,0,1-2.91.82,7.73,7.73,0,0,1-1.18.25h0l-1.08.12a36.33,36.33,0,0,1-5.9.09l-.57,0-.42,0h-.1c-.35-.06-1.65-.28-1.75-.28l-.69-.14c-.49-.11-1-.24-1.45-.39l-.54-.17-.56-.22-.8-.41c-.4-.22-.78-.49-1.17-.73-.19-.16-.38-.31-.55-.48-.33-.31-.62-.63-.91-1a9.74,9.74,0,0,1-4.9-.11,14.43,14.43,0,0,1-6-3.45,7.34,7.34,0,0,1-1.67.47c-3.7.62-7-1.22-9.7-3.82a13.83,13.83,0,0,1-3.84-1.87,32.33,32.33,0,0,0-.3,13.57,25.76,25.76,0,0,0,2.24,6.58A10.35,10.35,0,0,0,3357,659c-6-.19-10.82,4.13-14.09,8.84q-6.57,1.1-13.13,2.13c-12,1.88-24.24,3.34-36.29,1.51-5.93-.89-11.74-2.38-17.71-3-.88-.1-1.77-.16-2.65-.24a4.78,4.78,0,0,0-.26-.42,4.16,4.16,0,0,0-4.57-1.33c-1,.34-1.77,1.19-2.9.81a26.42,26.42,0,0,0-2.85-1.07c-1.81-.39-3.7-.32-5.49-.8a6.47,6.47,0,0,1-2.71-1.67,3.44,3.44,0,0,0-2.47-1c-1.55.09-2.6,1.44-3.93,2a2.55,2.55,0,0,0-1.85-1.41,7.41,7.41,0,0,0-2.3.13c-1.2.17-2.4.34-3.6.49a1,1,0,0,0-.93.93,1.07,1.07,0,0,1-1.11,1.15c-.69,0-1.1-.75-1.21-1.35-.26-1.42.9-2.55,2-3.26a1.07,1.07,0,0,0-1.09-1.83,83.92,83.92,0,0,1-13.2,4.87,1.34,1.34,0,0,0-.34.16l-.66-.08c-2.1-.56-4.21-1.1-6.3-1.69a1.16,1.16,0,0,0-.52,0,307.41,307.41,0,0,0-40-6.4c-6.8-.64-13.74-1.38-20.54-.45-3.3.45-6.58,1.13-9.91,1.27a37.66,37.66,0,0,1-8.73-.74,101,101,0,0,1-10.72-2.86,10.38,10.38,0,0,0-1-.67,8.9,8.9,0,0,0-3.07-.85c-1.64-.26-2.62-1.84-4-2.58-.8-.42-2.05,0-3,.24a1.67,1.67,0,0,1-.42-.8.55.55,0,0,0-.81-.32,4.77,4.77,0,0,1-2.76.46c-.63-.09-2-.39-2.35-1a.29.29,0,0,0-.49,0l-.15.24a.23.23,0,0,0-.21-.3c-.56,0-.68.49-1.07.86a.25.25,0,0,0-.08-.39c.37-.76.73-1.53,1.1-2.29.16-.31-.19-.76-.53-.52-.92.66-1.8,1.3-2.67,2,0-.15.06-.29.1-.43a.46.46,0,0,0-.83-.34,9.92,9.92,0,0,1-2.38,2.49c0-.12,0-.24,0-.37a.4.4,0,0,0-.69-.28c-.4.37-.81.72-1.22,1.08h-.09a.94.94,0,0,0-1.25-.27,2.67,2.67,0,0,0-1,.69,1.44,1.44,0,0,0-1.18.32l-.49.11s0-.08,0-.12a.21.21,0,0,0-.31-.18c-.25.18-.48.37-.7.56l-.71.19a.09.09,0,0,0,0,0,.67.67,0,0,0-.25-.3.87.87,0,0,0-.4-.66.3.3,0,0,0-.42,0,11.16,11.16,0,0,1-3.61,2.27l-.61.16c0-.1,0-.2.05-.3.07-.33-.36-.67-.62-.36a3.83,3.83,0,0,0-.59,1c-1.44.35-2.89.67-4.35.89-6.78,1-13.75.35-20.55,0l-1.34-.07c-.61-.91-1.3-1.77-2-2.67a21.51,21.51,0,0,1-4.18-13.59,1,1,0,0,0-1.68-.68l-4.05,4.63,0,0-3.16,3.62c-.24.27-1.32,1.9-1.8,1.71s-.46-2-.49-2.25a28.76,28.76,0,0,1-.12-5.41c.07-1-1.32-1.2-1.82-.48a3.22,3.22,0,0,1-3.58,1.27,1,1,0,0,0-1,.26,45.76,45.76,0,0,1-4,4.6,1.17,1.17,0,0,0-2.1-.2,10.73,10.73,0,0,1-2.79,3.46c-1.48.58-3,1-4.53,1.56q-1.5.6-2.94,1.32c-.73,0-1.48,0-2.21,0,0,.08,0,.17,0,.25h0a2.17,2.17,0,0,1,0-.26c-6.14-.12-12.24-1-18.38-.88-14.4.39-29,5.18-43.29,1.38-6.21-1.65-11.92-4.71-18.06-6.56-5-1.52-8.8-.7-13.82.51-5.78,1.38-12.2,2.47-17.12.43-1.66,7.3-.79,14.38.34,22.29,1.48,10.27,2,19.91-.27,30.12-2,9-5.32,17.59-7.44,26.53-2.29,9.65-1.95,19.22-1.41,29,.88,16-1.84,29.91-9,44.11a141.91,141.91,0,0,1-11.3,18.54,1.18,1.18,0,0,0-.58.41c-.23.32-.47.63-.68,1a1,1,0,0,0-.16.55,123.82,123.82,0,0,1-13.63,15.51c-9.14,8.73-20.73,16.79-33.81,17a5.13,5.13,0,0,1-4.3,2.47,214.1,214.1,0,0,0-24.42,1c-6.9.74-13.91,1.61-20.85.76s-13.82-3.85-20.5-6.06c-7.11-2.36-14.42-4.6-21.9-5.33a315.36,315.36,0,0,1-44.3-7.64c-13.89-3.37-28.31-7.75-42.43-3.57-4.6,1.37-8.51,2.15-13.28,1.12a219.48,219.48,0,0,1-21.24-5.7,5.66,5.66,0,0,1-2.23-1.42,4.52,4.52,0,0,1-3.55,1.59c-3.48,0-6.94-.15-10.39-.42a35.49,35.49,0,0,1-12.39-1.59c-1.26-.23-2.51-.48-3.77-.75a5,5,0,0,1-1.65-.67c-23.42,0-46.6,2.72-69.77,6.58-4.64,6.19-13.19,10-19.86,12.74-2.29.91-4.68,1.77-7.13,2.49,2.31,3,1.09,8.4-3.68,8.16-3.82-.19-9.45-2.32-12-6-1,0-2-.15-3-.3a17.2,17.2,0,0,1-8.46-3.42c-12.45,2-26.1,2.7-37.28-2.42a4,4,0,0,1-2.2-2.58,153.7,153.7,0,0,1-36.27-5.93,4.72,4.72,0,0,1-3.18-2.69c-3.69.35-7.39.71-11.09,1.11q-6.6.72-13.23,1.27c-.87,1-1.73,2-2.62,3-.76.72-1.56,1.41-2.36,2-4.44,1.94-8.54,3.82-13.26,4.37-2.23-.57-4.4-1.26-6.15-1.6a67.67,67.67,0,0,0-7.37-1c-1.8-.58-3.59-1.17-5.39-1.8-3.1-1.49-6.13-3.22-9.12-5a142.88,142.88,0,0,1-38.12-9l-1.22-.21a85.16,85.16,0,0,0-32,.46c-11.12,2.43-21.45,7.9-32.43,10.84-23.46,6.27-47-2.1-69.67-8.29a392.58,392.58,0,0,0-66.06-11.91c-43.17-4.08-86.63-1.77-129.74,2.08,0-.15,0-.3,0-.45-1.86.51-3.73.95-5.62,1.28-2.28.4-5,.84-7.21-.06a13.28,13.28,0,0,1-7.74.13l-.09,1c-32.51,3.17-65,6.84-97.54,9l-.15-.51c-.59-2.28-1.11-4.58-1.53-6.9s-.77-4.79-1-7.21a63.92,63.92,0,0,0-.48-6.51c.08,0,.17-.07.24-.12a.7.7,0,0,0-.17-1.26,9.16,9.16,0,0,0-3.79.16l-3.61.55c-1.18.18-2.37.4-3.55.58a10,10,0,0,1-1.89.14,4.71,4.71,0,0,0-1.63,0,.59.59,0,0,0-.14.06.84.84,0,0,0-1.47-.08c-2.22,3.3-3.34,7.6-4.37,11.41a59.71,59.71,0,0,0-2.09,11.1l-5.22.18c-.06-.23-.11-.45-.17-.67a34,34,0,0,0-2.77-7.09,35.08,35.08,0,0,0-4.12-6.12,13.12,13.12,0,0,0-4.28-3.77c.1-.36.2-.71.31-1.06.33-1,.76-2,1.17-3,.4-.71.78-1.43,1.1-2.14a2.44,2.44,0,0,0-.44-3.16,7.77,7.77,0,0,0-3.23-1.14c-.72-.16-1.41-.36-2.12-.58a6.57,6.57,0,0,0-1.11-.37h-.09a3.73,3.73,0,0,0-3.58-1.12,4.37,4.37,0,0,0-2,1.19c-2.35,1-3.83,3.31-5.22,5.44a66.33,66.33,0,0,0-5.09,9.42,69.5,69.5,0,0,0-2.88,7.76c-.19.3-.37.62-.57.92a9.54,9.54,0,0,1-4.37,3.67h-.27l0-.06a.63.63,0,0,0-.55-.21s0-.06-.06-.09,0-.28,0-.42a.83.83,0,0,0-.51-.74,1,1,0,0,0-.25-.06.83.83,0,0,0-.32-.18.9.9,0,0,0-1,.42,2.29,2.29,0,0,0-.16.31,5,5,0,0,0-2.29-1.32,15.36,15.36,0,0,0-5.37-.48c-1.57,0-3.14,0-4.71.08s-3,0-4.53.19c-1.17.11-2.32.31-3.48.48-.74.11-1.42.35-2.15.49l.52-.07a5.9,5.9,0,0,0-2.6,1,8.43,8.43,0,0,1-3.1.39.75.75,0,0,0-.57.17l-.48,0v2.23a5.9,5.9,0,0,1,1.42.35l-.52-.52a20.17,20.17,0,0,1,4.75,1.82,5.21,5.21,0,0,1,1.08.39l.48.24c-.63-.65-.14-.24.41.2l1.44.72c3.09,1.55,2.94,5.35,1.14,7.62a9.67,9.67,0,0,0-1.22,3.79c-.1,2.08.18,4.21.23,6.29a5.66,5.66,0,0,1-.08,1,4.29,4.29,0,0,1-.67,3.74c.2.86.39,1.73.57,2.62a5.81,5.81,0,0,1-1,4.44,4.37,4.37,0,0,1-1.27,4,3.76,3.76,0,0,1,0,2.69c.14,1,.26,1.89.48,2.78a5.18,5.18,0,0,1-1.14,4.67,41.35,41.35,0,0,1-1.18,12,5,5,0,0,1-3.5,3.49c1.45-.42.49.36.22,1.6-.2,1-.32,1.94-.51,2.91,0,.18-.08.36-.13.55a5.86,5.86,0,0,1,.43,3.09c-.27,1.75-1.07,4.1-1.47,6.36v3.2A4.72,4.72,0,0,1,1722,913c.62,2.31,1.12,4.63,1.91,6.84a3.58,3.58,0,0,1,.29.26,22.56,22.56,0,0,1,5.94,9.77,4.7,4.7,0,0,1-.1,2.76,11.14,11.14,0,0,1-2.93,11.41,4.7,4.7,0,0,1-2.62,1.36l-.27.51a7.51,7.51,0,0,1-.89,5.1c.92,4.72-.75,9.52-1.84,14.16-.69,2.92-1.26,5.81.48,8.47a68.5,68.5,0,0,0,5.14,7c1.92,2.22,1.6,6.21-.69,7.84.08.45.15.89.23,1.35a6.46,6.46,0,0,1,0,2.15c0,.19,0,.37,0,.55a1.6,1.6,0,0,0,0,.21,4.84,4.84,0,0,1-.52,3.71,4.21,4.21,0,0,1,.58,3.62H3428.58v-1.78l0-.13c.15-.39.31-.77.45-1.15,2.22-.47,3.3-3.87,1.13-5.33a.78.78,0,0,0-.74-.05l.09-.57a1,1,0,0,0-1-1.12c.1-1,.21-1.92.33-2.87.61-.75.7-1.83-.55-2.09a1,1,0,0,0-.73.14,1.1,1.1,0,0,0,0-.18c0-.44-.06-.87-.11-1.17-.1-1-.22-2.07-.35-3.1.17-3.36.18-6.73.08-10.07a1.05,1.05,0,0,0-1.7-.78l-.48-2.86a65.53,65.53,0,0,1,1.52-8.65c.28-1.33-1.73-1.89-2.06-.55a19.58,19.58,0,0,1-.59,2.19l0-.21a48.6,48.6,0,0,1,.8-5.74,25.06,25.06,0,0,0,.75-3.27,1,1,0,0,0-2-.53c-.09.34-.17.68-.26,1a80.26,80.26,0,0,1,6.41-19.37,1,1,0,0,0-.47-1.4l1.62-4.12c.41-1-1.25-1.67-1.78-.74s-1,1.77-1.52,2.66a.92.92,0,0,0-.93-.87c.66-2.71,1.36-5.42,2.06-8.12,1.61-3.67,3.31-7.3,5.13-10.87a.69.69,0,0,0,.16-.21l2.44-4.76a1.07,1.07,0,0,0-.86-1.55,1.05,1.05,0,0,0-2-.5c-.06.15-.13.29-.2.44l.78-4.63a1.11,1.11,0,0,0-1.34-1.29c0-1.18-.07-2.37-.19-3.58-.07-.68-.15-1.37-.24-2.06l1.35-12.18c.11-1-1.11-1.39-1.83-1,1.6-10.57,3.24-21.17,3.92-31.8.84-12.93,2.16-25.81.44-38.72-.79-5.91-1.2-14,5.22-17a1.09,1.09,0,0,0,.49-1.24A27.65,27.65,0,0,1,3440.26,779.9Zm-8.38,127.43-.71,1.43.27-1.28A.93.93,0,0,0,3431.88,907.33Z" transform="translate(-0.96 12.08)"/><path d="M5056.38,1002.06" transform="translate(-0.96 12.08)"/><path d="M5720.29,918.9l0,.08a1.24,1.24,0,0,1,.6-.25A.39.39,0,0,0,5720.29,918.9Z" transform="translate(-0.96 12.08)"/><path d="M7074.84,29.75c-5.74,20.37-4.72,41.78-8.5,62.5-2,11.17-5.72,21.92-9.08,32.74a331.51,331.51,0,0,0-8.45,32.84,355.32,355.32,0,0,0-6.62,67.47c-.12,11.61,0,23.22-.61,34.82a271.83,271.83,0,0,1-3.75,33.19c-3.81,21.73-10.45,42.58-17.75,63.34-.17.49-.35,1-.53,1.47-.73,2.06-1.48,4.12-2.24,6.16-.16.44.56.74.75.31q1.48-3.16,2.86-6.37l2.18.14c-8.87,21.72-15.47,44.24-22.56,66.58a72.75,72.75,0,0,0-11.76,3.4c-1.09.42-2.16.86-3.23,1.31q-7,14.44-13.3,29.21a1.26,1.26,0,0,1-2.34-.62l.21-2.81q-14,17.64-28.07,35.29a1.32,1.32,0,0,1-1.87,0,12.77,12.77,0,0,1-3.42-7,193.41,193.41,0,0,0-16.46,19.68,1.42,1.42,0,0,1-1.53.63q-23.61-5-47.23-10.14-13.68,23.82-25.88,48.45a1.39,1.39,0,0,1-1.88.51l-19.55-13.94-8.69-6.2c-.21,1.21-.43,2.43-.63,3.65q-4.69,28.18-9.28,56.4a1.33,1.33,0,0,1-2.4.33c-3.11-7-6.29-13.94-9.64-20.81q-8.91-18.31-19.13-35.95c-3.37-5.8-6.81-11.56-10.37-17.25-1.14-1.81-2.27-3.63-3.43-5.44a285.06,285.06,0,0,0-37.54,13.06c-2.72,1.18-5.39,2.43-8.05,3.72,1.93-18.34,3.75-36.68,4.87-55.08a328.22,328.22,0,0,0-.44-50.95c-1.57-16.81-3.52-33.59-4.47-50.45a199.1,199.1,0,0,1-.17-25.85c.3-4,.68-8.41,2.21-12.18.08.37.17.73.26,1.09.16.59,1,.32.88-.24-.13-.91-.21-1.82-.25-2.73a14.06,14.06,0,0,0-.89,1.88,24.25,24.25,0,0,1-.62-5.82c.21-10,5.82-19.07,11.5-26.88,6.24-8.59,13.11-16.65,19.05-25.46a151,151,0,0,0,15.39-28.35c4.24-10.65,6.42-21.78,8-33.09,1.68-11.71,3.42-23.32,6.33-34.81s6.56-22.81,10.37-34q11.7-34.5,24.06-68.77,6.18-17.2,12.48-34.36c.37-1,.65-2.89,1.51-3.6s2.45-.88,3.45-1.13a43.41,43.41,0,0,1,7.93-1.28,44.07,44.07,0,0,1,5.63,0v0l.15,0c3.6.24,35.52,7.15,48,8,34,2.41,68.12-1.09,102-3.75q41.22-3.23,82.45-6.53c0,.9,0,1.79,0,2.67C7074.78,29.1,7074.81,29.43,7074.84,29.75Z" transform="translate(-0.96 12.08)"/><path d="M6718.21,326.79c.08.56-.72.83-.88.24-.09-.36-.18-.72-.26-1.09a14.06,14.06,0,0,1,.89-1.88C6718,325,6718.08,325.88,6718.21,326.79Z" transform="translate(-0.96 12.08)"/><path d="M7020.92,358.22q-1.38,3.21-2.86,6.37c-.19.43-.91.13-.75-.31.76-2,1.51-4.1,2.24-6.16Z" transform="translate(-0.96 12.08)"/><path d="M7040.87,358.89c-.06,1.06-.14,2.12-.22,3.18a.56.56,0,0,1-.59.55,28.77,28.77,0,0,0-.44-3.73Z" transform="translate(-0.96 12.08)"/><path d="M7392.24,340c-.23.94-.44,1.87-.65,2.81-.1.48-.79.27-.72-.2.16-1.06.33-2.12.51-3.17l.83.54Z" transform="translate(-0.96 12.08)"/><path d="M1272.1,848c-.25-1-.52-1.93-.79-2.89a38.56,38.56,0,0,0,.42-9.92c-.23-3-.58-6-.92-8.94a28.49,28.49,0,0,1-6.73.64c.4-.47.79-.94,1.15-1.44a3.72,3.72,0,0,0,.1-3.69,5.22,5.22,0,0,0,.1-2.77,2.82,2.82,0,0,0-2.63-2,5.14,5.14,0,0,0-3.71,2,.84.84,0,0,0-.3-1.25c.26-.44.52-.88.76-1.33a1,1,0,0,0-1.75-1c-1.73,2.41-3.3,4.91-5.08,7.28-.53.7-1.08,1.39-1.62,2.08-1.59,1.12-3.2,2.18-4.84,3.2-1.91.86-3.84,1.7-5.72,2.63q-8.77-.15-17.53-.5c-40.79-1.68-81.37-6.43-122-10.39-1.15-12.72-2.4-24.4-.82-37.22,1.45-11.65,4.22-23.2,7.11-34.49,3.87-15.18,10-29.1,26.12-28.22,9.1.53,15.36.79,23.55-4.34,9.92-6.26,18.76-12.23,29.74-16.28,9-3.32,18.16-6.19,26.56-11.08,13.74-8,24.38-20.79,25.39-38.39a4.06,4.06,0,0,0-3.55-4.65,2.39,2.39,0,0,0-2.56-.29c-7,3.22-15.57,8.24-23.13,4.7-4.77-2.24-6.72-7.71-11.16-10.4-7.73-4.66-16,1.17-22.27,5.92-11.31,8.52-23.53,11.24-36.09,16.56a111.88,111.88,0,0,0-30.57,19.17c-17,15.09-28.36,34.14-30.26,58.44-1.09,13.92.37,27.88,1.23,41.75.74,11.94-1.15,25.07.09,36.89-43.11-3.85-86.57-6.16-129.74-2.08a392.4,392.4,0,0,0-66.06,11.91c-22.68,6.19-46.21,14.56-69.67,8.29-11-2.94-21.31-8.41-32.43-10.84a85.16,85.16,0,0,0-32-.46c-2.94.46-5.85,1.08-8.75,1.75a10.53,10.53,0,0,1-1.56-1.75,23.2,23.2,0,0,0,4.68-5.44,2.73,2.73,0,0,0-2.92-4c-5.46,1.39-10.08,5.78-14.61,9.22-2,1.55-4,3.17-5.95,4.82a2.32,2.32,0,0,0-2.41-.12c-5.52,3.25-11.11,6.88-16.94,9.69-1.8.63-3.6,1.22-5.39,1.8a67.67,67.67,0,0,0-7.37,1c-1.75.34-3.92,1-6.15,1.6-4.72-.55-8.82-2.43-13.26-4.37-.8-.64-1.6-1.33-2.36-2-2.34-2.6-4.57-5.35-6.72-8.11-1-3.18-1.79-6.47-2.62-9.82,0-.07.11-.14.15-.21a4.09,4.09,0,0,0,.11-4.11,2.12,2.12,0,0,0-2.55-2.43,1.26,1.26,0,0,0-.16.07,3.41,3.41,0,0,0-3.94,1.17A77,77,0,0,1,639,826.14c-1.23,1-2.56,1.81-3.85,2.67-11-.21-22.47,4.49-31.53,11a20.15,20.15,0,0,1,.31-4.91c.65-3.92-4.42-6.62-6.2-2.68a.21.21,0,0,1,0,.1,37.18,37.18,0,0,0-9.47,9.24c-3.88-1.94-7.82-4.4-12-4.87a35.22,35.22,0,0,1-2.1-8.41c-.33-2.31-3.88-3.39-4.2-.5-.09.72-.13,1.41-.16,2.1a3.24,3.24,0,0,0-3.29,3.63,3.76,3.76,0,0,1-.28.29l-5.61,4c-.76-1.55-1.54-3.08-2.28-4.66a123.14,123.14,0,0,0-6.65-3,3.4,3.4,0,0,0-4.33,2.56l-1.58,1.14a9.19,9.19,0,0,1-5.85-1.38,4.67,4.67,0,0,0-1-2.68c0-.23-.09-.47-.11-.71a2.67,2.67,0,0,0-.43-2.34c-.63-2.24-2.71-2.63-4.42-1.79a3.3,3.3,0,0,0-2.71,1.74,82,82,0,0,0-8,3.18c-2,.83-4.07,1.64-5.43,3.12-35.49-6.32-70.91-10.74-107.13-7-6.63.7-13.19,1.51-19.76,2.37a75,75,0,0,1-12.63-1.63l-.43,0c-3.86-2.11-4.53-12.13-8.93-14.47-2.75-1.48-5.33,1.67-4,4.61s2.84,5.94,4.29,8.9a14.72,14.72,0,0,0,.45,1.5c-.06,0-.15.05-.21.05a42,42,0,0,1-5-1.36,3.24,3.24,0,0,0-4.29-.81c-.28.14-.54.29-.8.43a2.77,2.77,0,0,0-.71.57,3.36,3.36,0,0,0-1.65-.43c-1.6.15-3.23,1.2-4.81,2.29-.67,0-1.32,0-1.95,0a19.81,19.81,0,0,0,1.95-2.32c2-2.91-1.64-6.92-3.81-4-.52.72-1,1.41-1.45,2.13a14.7,14.7,0,0,1-9.71,5.49,3,3,0,0,0-1.86,1l-.63.17c.46-4.75,1.84-7.61,3.77-12.29,1.52-3.63-3.44-6.64-4.92-3-.08.19-.19.41-.26.62-.34.77-.78,1.75-1.25,2.89-.15.38-.33.74-.5,1.1a2.91,2.91,0,0,0-3,1.6c-.35.64-.7,1.31-1.07,2a3,3,0,0,0-1.9.81,46.72,46.72,0,0,1-18,10.1,4.22,4.22,0,0,0-1.21.09c-.65.17-1.3.34-2,.5l-4.55.82a2.5,2.5,0,0,0-1.34.69c-3.31.83-6.65,1.65-10,2.41-1.2.26-2.34.52-3.38.81a3.26,3.26,0,0,0-1.24.53c-2.08.31-4.18.57-6.3.81-4.68,0-9.38,0-14.08-.12-34.82-1.17-70.26-5.49-105.66-8.48-5-2.31-10-4.89-14.95-7.33a3.64,3.64,0,0,0-3.35-.07,17.53,17.53,0,0,0-10.21-.86c-.39.08-.76.12-1.12.19a1.86,1.86,0,0,0-.33,0,35.12,35.12,0,0,0-9.21.4c-.19,0-.41.1-.62.15a20.26,20.26,0,0,1-6.72-2.32c-1.23-.67-2.1-2.1-3.49-2.63a7.4,7.4,0,0,0-1.43-.35,3.23,3.23,0,0,0-4.14-2.37A7.53,7.53,0,0,0,97,823a12.29,12.29,0,0,1-6.83,2.3c-2.53.14-5.11-.17-7.65-.27a36.2,36.2,0,0,0-14.55,2.13c-5.7,2.12-7,4.06-13.78,1.79.32-.93.67-1.84,1-2.77.59-1.58-.13-3.85-2-3.65-6.76.62-11.63,3.36-15.9,9.14a1.34,1.34,0,0,0-.17.31,20.62,20.62,0,0,1-3,1.34c-1.49-3.2-3-6.4-4.53-9.62l.39-.7c1.76-3.15-2.29-6.11-4.57-3.7a14.24,14.24,0,0,0-3.31,5.9,65.35,65.35,0,0,1-13.76,15.9c-2.42.71-4.85,1.5-7.28,2.31V1000H1245c-.06-1.2-.08-2.4-.07-3.6a6.63,6.63,0,0,0,5.34-3.54c1.12-1.9,1.27-4,1.88-6.07a2.8,2.8,0,0,1,1-1.68,31.33,31.33,0,0,1,2.89-1.29,7.74,7.74,0,0,0,3.75-6.2,1.56,1.56,0,0,0,0-.31,2.22,2.22,0,0,0,.09-.37,56,56,0,0,0,.44-9.14,2.94,2.94,0,0,0,.53-2.64c-.26-1.07-.56-2.13-.87-3.19l-.39-1.44a50.21,50.21,0,0,0-2.55-9.31c0-.07-.07-.14-.1-.22-.11-.72-.2-1.45-.29-2.18a3.35,3.35,0,0,0,2.34-.05,3.11,3.11,0,0,0,1.78-3.69c-.1-.28-.22-.55-.33-.82a2.74,2.74,0,0,0,.47-1.66,12.75,12.75,0,0,0-1.31-5,13.78,13.78,0,0,0,.2-7.53,3.17,3.17,0,0,0,.44-.95c.09-.33.17-.66.25-1a3.08,3.08,0,0,0,3.47-2.38,30.22,30.22,0,0,0,.46-11.22,3.44,3.44,0,0,0,1.81-2,18.94,18.94,0,0,0-1.48-16c0-.31,0-.63,0-.94.46-.84.94-1.66,1.46-2.46s1.14-1.75,1.76-2.59c.9-1.22,2-2.24,1.74-3.91a17.48,17.48,0,0,0-1.19-3.46l-1.23-3.24c-.81-2.16-1.74-4.28-2.65-6.4,0-.17,0-.34,0-.51a2.45,2.45,0,0,0,1.68-1.33,19.14,19.14,0,0,0,1.22-3.11,2.43,2.43,0,0,0,.37-.16,11.38,11.38,0,0,0,5.68-7.45,2.91,2.91,0,0,0-1-3,38.64,38.64,0,0,0,1.35-7.51A2.33,2.33,0,0,0,1272.1,848Zm-85.16-158.31c.67-.64,1.28-1.31,1.89-2a2.08,2.08,0,0,0,1.15.86C1189,688.94,1187.94,689.3,1186.94,689.68Zm29.94-23.94c4.16-2.15,9.14-4.44,11.64-8.66-3.84,15.89-18.46,23.65-32.85,29.33q2-3.25,4.12-6.23A50,50,0,0,1,1216.88,665.74Zm-47.14,18c1.32-1.7,2.58-3.44,3.84-5.16a91.06,91.06,0,0,1,6.3-7.14c5.87-5.87,12.85-8.8,19.3-13,.13.07.26.09.41.16s0,0,0,.07A74.69,74.69,0,0,1,1195,665c-1.8,2.08-3.72,4.06-5.67,6-7.69,4.08-14.43,11-21.49,16.07-.2.12-.39.26-.59.4C1168.07,686.22,1168.9,685,1169.74,683.79Zm-18.67,24.13a5,5,0,0,0,.63.48,19.56,19.56,0,0,1-3.67,1.5C1149.05,709.31,1150.07,708.64,1151.07,707.92ZM651.31,830.75a2.9,2.9,0,0,0-1,.78c-.23-.07-.45-.09-.69-.16a8.43,8.43,0,0,1,1.65-3.25A11.56,11.56,0,0,0,651.31,830.75Zm440.38-25.4c0-.36,0-.72-.07-1.08a3.41,3.41,0,0,0-1-2.46c-.21-4.94-.47-9.86-.76-14.8a3.62,3.62,0,0,0,2.37-.74,86.62,86.62,0,0,0,.28,19.2A2.54,2.54,0,0,0,1091.69,805.35Zm166.42,15c-.53.85-1,1.71-1.5,2.61l-1.29,1.33-.11.12-.21-.11c1.09-1.38,2.18-2.75,3.25-4.15Z" transform="translate(-0.96 12.08)"/><path d="M5720.25,919c-.22.44-.43.89-.64,1.34A1.6,1.6,0,0,1,5720.25,919Z" transform="translate(-0.96 12.08)"/><path d="M5830.72,387.81c5.24,1.81,10.71,1,15.67-1.28a1.5,1.5,0,0,0,.5-2.06,1.53,1.53,0,0,0-2.06-.5,18,18,0,0,1-13.37.94,1.5,1.5,0,0,0-.74,2.9Z" transform="translate(-0.96 12.08)"/><polygon points="5846.6 1014.14 5693.81 1014.14 5693.81 1013.95 5846.6 1014.14"/><polygon points="9067.84 1013.82 9067.84 1013.86 9045.62 1013.82 9067.84 1013.82"/><path d="M9075.53,248.33V685.07a27,27,0,0,0-9.62-4.56c-6.77-1.59-13.86,0-20.41-2.57a4.1,4.1,0,0,0-3.68.13c-12.23-3.48-24.4-6.94-36.89-9.51-6.16-1.26-12.24-2.95-17.7-6.16-6-3.5-10.46-8.48-15.53-13.06-8.6-7.77-19-11.88-29.5-15.88a55.52,55.52,0,0,0-6-10.56l-.3-.38a22.11,22.11,0,0,1-10.37-3c-.37-.21-.72-.42-1.07-.64-5.72-3.63-9.33-9.4-11.93-15.58-2.82-2.28-4.88-5.14-4.82-9.4a14,14,0,0,1,.52-3.53c-.87-3.48-1.34-7.08-.36-10.55a11.45,11.45,0,0,1,6.62-7.72c-1.13-1.77-2.21-3.57-3.2-5.43q-.93-1.75-1.77-3.57c-.26-.57-.51-1.14-.75-1.73a.59.59,0,0,1-.06-.16,1.48,1.48,0,0,1-.62-.36,1.62,1.62,0,0,1,.74-2.6l.18,0,.28-1.13c.19-.69.38-1.39.58-2.09.43-1.53.89-3.07,1.38-4.6q1.4-4.35,3-8.61,3-7.85,6.83-15.34a34.76,34.76,0,0,0-15.11,2.34c-1,.38-1.83-.92-1.34-1.74q3.84-6.35,7.84-12.59c9.1-14.2,18.95-27.85,29.26-41.21a8.69,8.69,0,0,1-4-7.08c-.26-4.35,2.14-8.48,4-12.24s3.79-7.58,5.78-11.32a4.69,4.69,0,0,0,3.64-2.31c6.82-10.86,17.82-18,27.47-26.08,8.32-7,18.61-16.69,20.17-28.07,1.53-11.1-9.24-16-17-21.14-8.51-5.65-14.5-13.41-14.7-23.13a4.75,4.75,0,0,0,1.17-3.26v-4a5,5,0,0,0-1.71-3.69,73.45,73.45,0,0,1-.8-8.19c-.11-2.37-.59-6.63.17-9.8,2.29-1.54,3.64-4.16,3.05-8.1-.62-4.11-5.81-4.28-8.36-2.21a10,10,0,0,0-1.86,2,9.31,9.31,0,0,1-2.45-.63,6.63,6.63,0,0,1-1.49-.92V299.6c.13-.19.26-.37.42-.58,3.2-4-.64-9.29-4.38-8.73-5.75-7.12-9.65-15.77-9.34-25.05a1.11,1.11,0,0,1,1.37-1A18.11,18.11,0,0,1,8948,256a1,1,0,0,1,1.62.41c.21.9,1.34.63,2,.39a7.16,7.16,0,0,0,2.39-1.85c.26-.25.54-.49.82-.72v-5.9Z" transform="translate(-0.96 12.08)"/><path d="M9075.53,794v207.74h-29l-129.83-.22A86.5,86.5,0,0,0,8930,978.84l2,0a24.62,24.62,0,0,1-.36-4.06c0-8,2.94-15.51,6-22.75,3.58-8.42,6.79-16.56,7-25.84.19-9-1-17.84.42-26.77,1.33-8.55,4.13-16.79,5.87-25.25.69-3.38,1.2-6.77,1.56-10.18l.09-11.49.08-9.7c12.67-5.33,28.31-6.71,40.08-8.36,12.7-1.77,25.49-3.76,37.49-8.47a108.47,108.47,0,0,0,13.5-6.44,5.36,5.36,0,0,0,2.31.1c11.9-2,17.4-15.42,23.84-24.54A9.4,9.4,0,0,0,9075.53,794Z" transform="translate(-0.96 12.08)"/><text class="cls-4" transform="translate(918.53 890.04) scale(1.04 1)"><tspan xml:space="preserve">Try  a  high  pitch</tspan></text><path d="M9011.8,377a1.49,1.49,0,0,0,0-3,1.49,1.49,0,0,0,0,3Z" transform="translate(-0.96 12.08)"/><path d="M6718.21,326.79c.08.56-.72.83-.88.24-.09-.36-.18-.72-.26-1.09a14.06,14.06,0,0,1,.89-1.88C6718,325,6718.08,325.88,6718.21,326.79Z" transform="translate(-0.96 12.08)"/><path d="M7995.4,410.8c-2.22,4.62-4.5,9.2-7,13.7-8.25,15-18.93,30.12-35,37.28a98.39,98.39,0,0,1-5.63,18.78,1.13,1.13,0,0,1,0,1.1,65.41,65.41,0,0,0-7.43,26.9c-.47,8.57.29,17.29-1.59,25.74-1.47,6.63-4.54,12.79-8.08,18.54S7923,564.22,7919.33,570a86,86,0,0,0-7.18,14c-.87,4.19-2.54,8.11-5.83,10.89-4.44,3.75-12,5.22-16.71,1-1.51-1.36-2-3.22-3.18-4.79s-3.31-1.75-5.13-1.16c-4.32,1.42-5.72,6.31-7.3,10.08a32.84,32.84,0,0,1-14.82,16.17,118.14,118.14,0,0,0-7.55,21.88,1.31,1.31,0,0,1-2.36.33c-3.18-4.91-7.48-10.91-14.15-9.61-5.28,1-11.55,4.84-16.5.65a10.37,10.37,0,0,1-2.29-3.15c-.56-1-1.1-2.31-2.18-2.9-1.76-1-4.14.19-5.84.77-2.07.71-4.35,1.43-6.54.83-2.87-.8-4.52-3.73-6.22-5.94l-4.87-6.35-2.48,0a62.88,62.88,0,0,1-14.42-1.26c-4.79-1-9.49-2.43-14.28-3.43a58.32,58.32,0,0,0-14.13-1.19,95.06,95.06,0,0,0-14.16,1.72c-3.34,4.42-6.7,8.83-10,13.27a1.24,1.24,0,0,1-1.33.55,10.37,10.37,0,0,1-4.86-2.9,45.14,45.14,0,0,0-8.87,10.5,1.15,1.15,0,0,1-2,0,10.15,10.15,0,0,1-1.42-2.6c-3,6.73-5.5,14-6.18,21.27a1.18,1.18,0,0,1-2.31.33c-1.39-4-2.49-8.11-3.89-12.12s-2.92-7.8-4.53-11.64c-1.41-3.39-3-6.72-4.56-10a42.21,42.21,0,0,1-10.17-2.89c-4.62-2-8.74-4.95-13.42-6.8-.91-.36-1.84-.66-2.77-.93A219.75,219.75,0,0,1,7639,580.08a42.24,42.24,0,0,1-19.76-17.91c-2.63-4.7,3.37-9.81,7.36-6.52-2.17-4.69-4.27-9.44-6.31-14.21-3.26-7.62-6.44-15.27-9.65-22.92-.19-.17-.39-.32-.59-.48-4.84-3.8-10.07-8.06-10.42-14.71A20.33,20.33,0,0,1,7601,496q-1.47-3.33-3-6.65-2.09-4.6-4.26-9.18c-.23,0-.46-.06-.69-.08-3.16-.24-6.11.41-9-1.21-5.91-3.25-7-10.8-8.73-16.64a167.47,167.47,0,0,0-8.84-23.33c-1.73-3.7-3.6-7.34-5.58-10.91-1-1.78-2-3.55-3.07-5.3-.27-.43-.66-.95-1-1.45a5.24,5.24,0,0,1-4.86-1.08,5.93,5.93,0,0,1-2.15-4.58l-6.3-17.35a99.9,99.9,0,0,1-9.13-15,4.1,4.1,0,0,0-4.65-2.48,38.77,38.77,0,0,0-7.11-5.34,261.5,261.5,0,0,0-4.89-27.82c-2.16,2.21-4.31,4.42-6.48,6.62a1.1,1.1,0,0,1-1.84-1.05q2.6-9,5.86-17.68c7.53-20.17,17.22-40,30.1-57.3a.75.75,0,0,1,.66-.31,16.36,16.36,0,0,1,3.16-2.84c.38-2.18.71-4.36,1-6.56.53-4.17.59-8.36.94-12.54a.5.5,0,0,1,.87-.34q.45-2.92,1-5.84h-4.28c2.66-11.67,7.32-23,11.8-34,5.88-14.43,10.9-28.74,15.41-43.65,9.74-32.21,21.61-63.71,33.05-95.34q4.47-12.34,8.79-24.74h7.39c.28-1,.57-2,.83-3,2.57-9.65,4.56-19.41,6.24-29.25,1.11-6.56,2.26-13.14,3.93-19.57A4.1,4.1,0,0,0,7637-1.6c.26-1.41.56-2.8.91-4.18.34-1,.68-2.06,1.06-3.08h-.19c.27-.85.57-1.7.89-2.53h.27a1.18,1.18,0,0,1,2.12,0c64.55-1.26,129.11-.41,193.58,3.74,25.34,1.64,53.5,3.44,71.12,24.27,8.6,10.16,13.38,22.57,16.07,35.53h8.27q-.91,20-.33,39.93-1.17,6.91-2.05,13.81c-4.23,32.79-3.84,66.07-2,99,.85,15,2.08,30,3.39,44.93h-5.24c0,.71,0,1.42,0,2.13a57.19,57.19,0,0,1,8.06,6.52,58.52,58.52,0,0,1,18,44.93c-.58,10.82-3.39,21.53-6.43,31.88a247.77,247.77,0,0,1-9.26,26.08l5.18-3.6a1.23,1.23,0,0,1,1.8.72,71,71,0,0,1-3.69,38.77,52.28,52.28,0,0,0,11.44,3.26c15,2.64,31.18.81,44.9,8.53A1.33,1.33,0,0,1,7995.4,410.8Z" transform="translate(-0.96 12.08)"/><path d="M7040.87,358.89c-.06,1.06-.14,2.12-.22,3.18a.56.56,0,0,1-.59.55,28.77,28.77,0,0,0-.44-3.73Z" transform="translate(-0.96 12.08)"/><path d="M7392.24,340c-.23.94-.44,1.87-.65,2.81-.1.48-.79.27-.72-.2.16-1.06.33-2.12.51-3.17l.83.54Z" transform="translate(-0.96 12.08)"/><path d="M7408.84,249.8a110.73,110.73,0,0,1,.11,27.35c-2.73,21.62-11.7,41.76-16.71,62.86l0,0-.83-.54c-.18,1.05-.35,2.11-.51,3.17-.07.47.62.68.72.2.21-.94.42-1.87.65-2.81a24,24,0,0,1,2.11,1.52,1.27,1.27,0,0,1,1.57-.27,14.07,14.07,0,0,1,6.84,8.89,13.27,13.27,0,0,1-1,9.81c-1.07,2-2.81,3.55-3.56,5.7a16.44,16.44,0,0,0-.39,6.7c.34,4.3.68,8.43-1.53,12.33a15.2,15.2,0,0,1-7,6.36c3.06,4.86,2.75,10.94,0,16-3,5.58-6.64,10.87-10.08,16.21-2.9,4.51-6.07,8.86-9.3,13.14-2.05-3.15-4.08-6.31-6.14-9.45a1,1,0,0,0-.47.23c-.86.79-1.67,1.62-2.88.78a6.33,6.33,0,0,1-1.27-1.54l-1.75-2.4-3.21-4.39-5.2-7.11-.63,2.8a1.11,1.11,0,0,1-2,.28c-.24-.52-.48-1-.73-1.54a1.2,1.2,0,0,1-2,0,94.63,94.63,0,0,1-9.1-23.43l-.33-.3-1.27,1.61c-3.44,4.53-6.65,9.25-9.8,14a.6.6,0,0,1-1,0,1.09,1.09,0,0,1-1.37-1.09c-.19-5.24-.6-10.48-1.3-15.68-.53-3.87-1.27-7.69-2-11.52a67.51,67.51,0,0,0-11.11-5.27,32.45,32.45,0,0,1-3.3-.22,10.15,10.15,0,0,1-3.87-1.41c-1.25-.75-2.65-1.92-4.18-1.37a.89.89,0,0,1-1.13-.84c.17-1.4.44-3.09-.29-4.38a2,2,0,0,0-3.18-.69c-1.23.77-3.6,1.32-3.89-.77-.16-1.16.58-2.49.9-3.58.38-1.33.71-2.68,1-4a47.45,47.45,0,0,0,.8-5.93,24.92,24.92,0,0,0-4,8c-1,3.33-1.08,6.85-3.2,9.73a13.37,13.37,0,0,1-13.12,5.08c-.17,1.14-.35,2.28-.46,3.43a47.23,47.23,0,0,0-.2,5.58,1.12,1.12,0,0,1-2.06.57c-1.27-2.13-2.56-4.26-3.79-6.41a10.62,10.62,0,0,1-.86-1.86,134.77,134.77,0,0,0-26.27,12.4c-.38.59-.77,1.17-1.16,1.75-1.24,1.89-2.47,3.79-3.67,5.71-.63,1-1.29,2-1.84,3.1a20.59,20.59,0,0,0-1.26,3.69c-.16.53-1.09.65-1.19,0-.41-2.61-.75-5.21-1-7.81l-2.31,1.6a107.15,107.15,0,0,0-.9,25.17c.08,1-1.59,1.23-1.75.24-.95-5.86-2-11.72-3.3-17.53-.24-1.07-.49-2.13-.74-3.2-1.1.79-2.18,1.6-3.27,2.4a124.09,124.09,0,0,1-18,19.25,99.25,99.25,0,0,0-10.17,9.49,11.13,11.13,0,0,1-4.3,3.52,4.46,4.46,0,0,1-3.75-.2c-8,9.83-17.3,18.66-28.16,25.28-3.5,3.62-7,7.22-10.61,10.73-4.31,4.21-9.25,8.5-12.85,13.52-3.23-4.13-6.52-8.22-10-12.17l-.42,2.06c-1.44,7.11-3,14.21-4.31,21.34a.7.7,0,0,1-1.27.18c-2-4-3.75-8.11-5.84-12-1,4.3-2.2,8.55-3,12.91a129.82,129.82,0,0,0-2,15.47.81.81,0,0,1-1.61,0c-.19-1.54-.37-3.08-.56-4.62a.81.81,0,0,1-.75-.82c-.3-6.66-.54-13.3-1.18-19.94-1-10.8-3.15-21.71-7.65-31.64a65.48,65.48,0,0,0-6.46-11.18c-6.51-3.52-13.26-6.63-20-9.62L7050,428c-1.45-.38-2.9-.74-4.36-1.08-.17-2-.35-4.07-.54-6.07-1.71-17.76-3.05-35.55-4.77-53.3-.12-1.2-.12-3-.25-4.9a.56.56,0,0,0,.59-.55c.08-1.06.16-2.12.22-3.18h-1.25a28.77,28.77,0,0,1,.44,3.73.57.57,0,0,1-.56-.55,106.07,106.07,0,0,1,.53-18.68c.56-6.22,1.31-12.43,2-18.64q2.16-18.69,4.43-37.39,8-66.24,17.53-132.3c4.68-32.79,14.72-112.46,15.16-115.9a77,77,0,0,1,2.39-11.75c.24-.85.5-1.7.77-2.55.26,0,166-12.63,236.14-17.94.49.9,1,1.79,1.53,2.68l-.92.07a27.35,27.35,0,0,1,2.69,2.93c.54.93,1.08,1.87,1.58,2.84a4.43,4.43,0,0,0,.81,1.08q1.15,2.13,2.2,4.34a155,155,0,0,1,11,31.6c2.55,11.09,3.33,22.41,5.12,33.63.46,2.86,1,5.71,1.67,8.53V93.09a75.37,75.37,0,0,0,4.68,12.42c6,12.82,14.65,24.2,23.05,35.53,21.13,28.46,32.05,61.47,37.67,96.21.67,4.17,1.25,8.36,1.79,12.55Z" transform="translate(-0.96 12.08)"/><path d="M8608.12,977.23c-1.26-.88-2.53-1.76-3.78-2.65-1.7-1.22-3.5-3-5.56-3.6a4.2,4.2,0,0,0-2.86.19,27.71,27.71,0,0,1-2.75,1.44c-4.57,1.4-7.49-4-9.21-7.26a1.26,1.26,0,0,0-2.28.31c-.49,2.54-1,5.08-1.48,7.62-2.92-1.8-6.23-3.35-9.69-2.72-1.87.35-3.32,1.47-4.89,2.43a5.18,5.18,0,0,1-2.49.92,8.75,8.75,0,0,1-3.26-.95c-4.2-1.58-9.09-.29-13.38.24q-7.21.9-14.43,1.76c-9.52,1.16-19,2.41-28.63,2.12a110.3,110.3,0,0,1-14.4-1.35c-2.23-.37-4.44-.84-6.64-1.36a2,2,0,0,0-2-.54,2.16,2.16,0,0,0-1.41,1.32c-.4,1.11.27,2.16.05,3.24-.17.8-.52.49-1,.08a6.08,6.08,0,0,1-1.61-2.4l3.2-7.85c1.39-3.41,2.73-6.84,4.17-10.23,1.15-2.71,2.51-5.46,5-7.15,2.31-1.55,5.06-2.31,7.21-4.15.08-.06.14-.15.22-.22a1,1,0,0,0,1.48-.43c1.43-3.56,5.81-4.59,9.22-5,5-.67,10.15-.87,15.2-1.46a296.38,296.38,0,0,0,32.42-5.73c10.76-2.5,21.48-5.35,32.09-8.42,4.71-1.36,9.63-2.67,14-5s7.11-6.09,9.8-10.13q2.58-3.87,5.14-7.74c1.39-2.09,2.88-4.11,2.73-6.74-.26-4.44-4-7.9-4-12.36a1.18,1.18,0,0,0-1.77-1,162.73,162.73,0,0,1-19.2,10.12,65.3,65.3,0,0,1-9.69,3.26,82.11,82.11,0,0,1-11.15,1.64,45.8,45.8,0,0,0-10.82,2.48c-3.31,1.2-6.56,2.54-9.92,3.6-6.89,2.19-14,3.65-21,5.26a152.8,152.8,0,0,0-17.47,4.88c-11.56.56-22.41,4.7-33,9-5.57,2.29-11.13,4.63-16.84,6.55a132,132,0,0,1-18.19,4.6c-12.32,2.29-24.82,3.4-37.14,5.67a147,147,0,0,0-35.3,11.59c-11.64,5.37-23.08,10.91-35.57,14.06-12.65,3.2-25.73,4.69-38.73,5.49q-40.64,2.5-81.32,4.33c-27.37,1.25-54.77,2.27-82.14,3.63-2.7.14-5.39.34-8.08.55v-.93h-1.43l-.07,0c-3.16-.6-6.5-.34-9.71-.32s-6.43.06-9.64.12c-2.64.05-5.27.14-7.9.23h-15.85c-1.63-.26-3.25-.61-4.93-.86a64.14,64.14,0,0,0-9.4-.34h-25.23a29,29,0,0,0-5.1.24c-1.56.28-2.95,1-4.57.75a7.57,7.57,0,0,1-2.35-.9c-16.14-18-25.59-40.91-31.93-64.06-.31-1.12-.6-2.24-.89-3.35.62-11,1.12-22.06.85-33.08q.63-6.25,1.28-12.5c.1-.89-1.13-1.37-1.77-.85,0-.73.09-1.47.12-2.2.08-1.81.15-3.61.2-5.42a21,21,0,0,0-.12-4.55c.16-.61.34-1.21.5-1.83,1-3.9,2.18-8,2.36-12.05.31-6.91-4.51-12.07-9.26-16.44a52,52,0,0,1-4.29-9.31c-1.92-6-2.64-12.24-3.59-18.41-.92-6-2-12-4.72-17.46a27.89,27.89,0,0,0-5.1-7.27c-1.67-1.72-3.68-3.27-5.12-5.22a110,110,0,0,1,5.56-17.54c.68-1.66,1.42-3.24-.17-4.62s-3.23-2.31-4.8-3.47q-2.7-2-5.29-4.11a61.16,61.16,0,0,0-4.88-4,.81.81,0,0,0-.51-.13l-.58-.38-2.44-5.2c-1.76-3.77-3.47-7.58-5.22-11.37a10,10,0,0,0-1.32-2.82c-1.09-2.31-2.19-4.61-3.36-6.88a19,19,0,0,0-5.91-7.3,15.69,15.69,0,0,0-7.73-2.58,17.81,17.81,0,0,0-15,6.39,21.23,21.23,0,0,0-4.29,8.83,25.36,25.36,0,0,0-.5,3.06,171.94,171.94,0,0,0-31.9-3.28l-1-1c-1.51-1.52-3-3.1-4.36-4.73-1.25-1.47-2.34-3.43-3.92-4.56s-4.06-.82-6-.77a58.64,58.64,0,0,0-6.75.52,34,34,0,0,0-3.72.73,23.9,23.9,0,0,1-3.73.92,2.78,2.78,0,0,1-2.76-1c-.39-.6-.53-1.24.06-1.72,1.11-.92-.17-2.31-1.27-2.14-9.59,1.45-19.52,3.42-27.11,9.76a27.36,27.36,0,0,1-1.46-8.81,1.21,1.21,0,0,0-1.82-1,17,17,0,0,0-5.71,6.08q-2-3.39-3.69-7a1.27,1.27,0,0,0-2.3.32c-.57,3.12-1.09,6.29-1.49,9.49-.77-2.82-1.53-5.63-2.29-8.45-2.39-8.85-4.7-17.71-6.48-26.7a1.33,1.33,0,0,0-2.55,0c-1.78,7.89-3.28,15.85-4.76,23.79-.73,3.9-1.4,7.81-2,11.72q-.45,2.75-.88,5.49a61.24,61.24,0,0,0-6-1.31,66,66,0,0,0-12.64-.83c-4.34.14-8.62.83-13,.31s-8.92-1.6-13.35-2.45L7726.74,702c-8.51-1.65-16.92-3.33-25.61-3.58-4.28-.13-8.7-.21-12.75-1.79-1.78-.7-3.57-2.27-5.59-2a3.13,3.13,0,0,0-1.63.73,1,1,0,0,0-.54.14,50.66,50.66,0,0,1-25,7.13,49.79,49.79,0,0,1-8.54-.6l0,0-2.16-3.85a4.5,4.5,0,0,0-2.42-2.48,6.55,6.55,0,0,0-3.05.06,13,13,0,0,1-4.52-.22c-2.66-.53-5.28-1.35-8-1.09a40.38,40.38,0,0,0-8.28,2.16q-4.35,1.36-8.77,2.44-4.18,1-8.43,1.8a19.79,19.79,0,0,1-4.25.54c-1.47-.06-2.8-.82-4.28-.93-3.11-.22-5.86,1.49-8.7,2.46l-.3.09c-4.7-.9-9.48-1-14,1.07-.74.33-.57,1.13-.06,1.52-4.69,4.5-2.94,12.86.79,17.61,2.83,3.62,6.7,6.23,10.12,9.24.13.11.24.23.36.34.17,1.3.34,2.59.49,3.89.37,3.31.73,6.62,1,9.94a166.33,166.33,0,0,1,.25,20c-.07,1.4,1.77,1.63,2.45.64a20.77,20.77,0,0,1,1.59-2,223.81,223.81,0,0,1-.22,26,213.9,213.9,0,0,1-3.71,28.64c-1.07,5.38-2.44,10.68-3.77,16a1.45,1.45,0,0,0,.94,1.73c0,.12-.07.24-.1.36a7.44,7.44,0,0,0-.11,3.35,4.85,4.85,0,0,0,1.89,2.93,110.37,110.37,0,0,0-6.93,16.71c-.78,2.39-2,5.76.09,7.86a3.9,3.9,0,0,0,4.58.66,7,7,0,0,1,.56.53c-.34,2.44-.67,4.88-1,7.32l-.36,2.45a6.86,6.86,0,0,1-3.75.79c-1.05-.09-1.61,1-1.44,1.91.83,4.26,1.72,8.52,2.64,12.77a250.2,250.2,0,0,1-9,35.81c-1.21,3.56-2.55,7.09-4,10.56-1.53-1.24-3-.55-4.38.73-2.51,2.44-3.92,5.69-5.12,8.94-.66-.46-1.33-.92-2-1.33a2.28,2.28,0,0,0-2.29-.25c-.81.41-1.2,1.53-1.6,2.27l-1,1.82a13.76,13.76,0,0,1-2.43-6.24c-.17-1.31-2.32-1.92-2.56-.33-.76,5.12-1.44,10.25-2.15,15.38-.34,2.45-.68,4.9-1,7.36-.12,1-.25,2-.36,3h-21.11a21.41,21.41,0,0,0-5.16-12.14c-6.14-6.91-16.55-8.43-25.11-6-9.09,2.61-17.17,11.85-27.27,8.91-4.68-1.36-8.94-4.2-14-3.86a9.23,9.23,0,0,0-5.77,2.3c-1.78,1.65-2.52,4.07-3.92,6a17.31,17.31,0,0,1-5.5,4.78h-22l-3.3-1.6-.48-.26a.75.75,0,0,0-.24-.08c-2.41-1.16-4.84-2.29-7.3-3.33a62.54,62.54,0,0,0-11.71-3.72,97.35,97.35,0,0,0-12.38-1.53c-4.26-.3-8.53-.55-12.79-.82l-6.54-.41a24.7,24.7,0,0,1-6.12-.8,27.17,27.17,0,0,1-5-2.68,24,24,0,0,0-5-2.13,30.54,30.54,0,0,0-10.64-1c-7.78.5-15.28,2.93-22.79,4.84-8.34,2.12-16.83,4.3-25.41,5.19-17,1.76-33.81-3.18-50.81-2.29a54.35,54.35,0,0,0-22.56,5.93c-3.34,1.73-6.92,3.74-10.63,4.71h-8a12.18,12.18,0,0,1-1.23-.45,9.75,9.75,0,0,1-3.7-2.67.64.64,0,0,0-.29-.19c-1.77-3-4.07-6.15-7.74-6.15-.29-1.52-.63-3-.95-4.55-.17-.83-1.26-.8-1.67-.2-2.73,4.05-5.59,8.09-8.16,12.26a1.41,1.41,0,0,0-1.48.46q-1.14-4-2.57-7.91a1.23,1.23,0,0,0-2.41.35c-.1,2.56-.21,5.12-.31,7.68-.51.71-2.57-1-3-1.34a37.43,37.43,0,0,0-4-2.87,37.85,37.85,0,0,0-9.2-4.13,1.5,1.5,0,0,0-1.87,1.63l-.08.08a3,3,0,0,1-.43.24,13.13,13.13,0,0,1-1.51.59l-2.75,1c-2.05.77-4.09,1.58-6.15,2.31-1.07.38-1.47.39-2.23-.44s-1.34-1.55-2-2.32q-2.16-2.46-4.3-4.93a1.58,1.58,0,0,0-2.46.34l-5.37,9.47c-1,1.81-2.14,3.61-3.16,5.45q-6-5.14-12-10.31a1.34,1.34,0,0,0-1.85,0c-1.48,1.28-3.79.37-5.39-.17a11.21,11.21,0,0,0-5-.9,6.38,6.38,0,0,0-4.57,2.5,9.62,9.62,0,0,1-2.26-4.87c-.12-.75-1-1-1.61-.9a34,34,0,0,0-16.63,7.66,20.35,20.35,0,0,0-22.17-2.85,11.63,11.63,0,0,0-.62-2.1c-.41-.94-1.41-1.07-2.32-1.33a33.35,33.35,0,0,0-6.65-1.18,34,34,0,0,0-11.88,1.23,2.26,2.26,0,0,1,1.47-1.62,1.28,1.28,0,0,0-.36-2.49A112,112,0,0,0,6973,968.2c-.47-1.2-.95-2.41-1.43-3.61a1.27,1.27,0,0,0-1.84-.73l-6.29,3.14-3.39,1.69c-1,.49-2,1.08-2.95.26-1.18-1-1.89-2.42-3.09-3.41a13.56,13.56,0,0,0-3.83-2.21,14.63,14.63,0,0,0-15,2.83,13.24,13.24,0,0,1-.73-7.32,1,1,0,0,0-1.28-1.26,36.87,36.87,0,0,0-9.32,4.36l-1.72-5.65a1.21,1.21,0,0,0-2-.51c-6.33,5.58-14.36,12.51-23.41,10.18-.37-.94-.71-1.89-1.06-2.84-.26-.72-1.3-1.19-1.87-.48-.87,1.06-2.91,1.05-3.37-.43a1.21,1.21,0,0,0-2-.51l-.8.65a6.45,6.45,0,0,0-4.39-4.65,5.54,5.54,0,0,0-4.81,1c-.18-.71-.36-1.43-.53-2.15a1.21,1.21,0,0,0-2.19-.27,6.8,6.8,0,0,1-1.73,2.14c-.62.42-2.3.37-1.86-.8.33-.89-.83-1.64-1.56-1.18l-2.19,1.34a77.14,77.14,0,0,1-3.17-16.92c-.07-.93-1.36-1.71-2.07-.83-7.54,9.36-15.12,18.67-23,27.78-1-1.38-2-2.76-3-4.13q-1.08-5.4-2.15-10.81a1.12,1.12,0,0,0-1.39-.77,27.69,27.69,0,0,0-5.3,3,29.41,29.41,0,0,1-3.71-11c-.13-1.05-1.68-1.79-2.24-.59-4.29,9.15-8.27,18.45-12.1,27.81a24.7,24.7,0,0,1-3.39-10.21,1.36,1.36,0,0,0-2.3-.93,42.19,42.19,0,0,1-8.21,5.3,30.22,30.22,0,0,1-1.95-6.54,1.22,1.22,0,0,0-1.79-.71,35.37,35.37,0,0,1-4.05,2.44c-1,.53-3.24,2.11-4.05.74a21.31,21.31,0,0,1-1.42-4.19c-.54-1.68-1.09-3.36-1.62-5a1.17,1.17,0,0,0-2.1-.26c-4.62,6.48-9.46,13.16-16.44,17.22l-1.38-2.85a1.24,1.24,0,0,0-1.94-.23c-3,3.61-6.09,7.3-8.93,11.1a45.92,45.92,0,0,0-28.53-7.75c-9.55.68-18.48,5.43-28.15,5-5.53-.27-10.92-1.89-16.4-2.67a133.57,133.57,0,0,0-14.55-1.2c-21.53-.71-43.17,0-64.72-.17-21.79-.19-43.58-.54-65.37-.86l-131.28-1.9c-21.45-.31-42.94-.43-64.34-2.06s-42.76-4.89-64.19-6.84c-20.87-1.91-41.84-2.43-62.66.4a223,223,0,0,0-56.68,15.49q-3.36,1.43-6.67,3H6113c-.11-1.18-.23-2.36-.34-3.54l-.88-9.07a1.28,1.28,0,0,0-2.51-.32,20.84,20.84,0,0,1-2.45,5.71,8.87,8.87,0,0,0-1.22-1.9c-.63-.75-1.73-.22-2,.55a26,26,0,0,1-2.71,5.46c-.7,1.07-1.48,2.08-2.22,3.11h-16.5l-.47-.13c-7.16-1.93-14.32-3.88-21.64-5.12-14.49-2.47-29.23-2.76-43.89-2.68-15.12.09-30.24.31-45.36.47-15,.15-29.94.09-44.9.57a173,173,0,0,0-24.36,2.25c-8.13,1.41-16.06,4.41-24.43,3.53a1,1,0,0,0-1.12,1.06c-.14-.49-.28-1-.45-1.47a7.6,7.6,0,0,0-3-4.06,4,4,0,0,0-4.49.13,5.75,5.75,0,0,0-1.78,2.27,8.82,8.82,0,0,0-4-3.09,4.75,4.75,0,0,0-3.26.1,8.62,8.62,0,0,1-1,.47c-.63.14-.58-.09-.7-.55s-.18-1-.35-1.52a3,3,0,0,0-4.6-1.3,2.56,2.56,0,0,0-.59.64c.14-1.26.06-2.65.12-3.87a1.12,1.12,0,0,0-1.9-.77,48.45,48.45,0,0,0-3.58,5.2s-.05,0-.08,0a1.52,1.52,0,0,0-.77,1l-.46.2-.65.31c-30.46,1.19-63.39,2.59-97,3.83q-2.53-8.54-5.08-17.07l-5.82-19.52-2.85-9.55c-.38-1.27-.62-2.79-1.78-3.61a4.22,4.22,0,0,0-3.51-.28l-.41.1c-.18-.44-.34-.89-.49-1.34-.49-1.51-.93-3.52-2.89-3.54a.69.69,0,0,0-.46.17l-.24-.24a.63.63,0,0,0-.68-.21,3.62,3.62,0,0,0-.42-.53,2.16,2.16,0,0,0-1.73-.64l-.12,0a1.24,1.24,0,0,0-.6.25c-.22.44-.43.89-.64,1.34s-.38.88-.55,1.33c0-.09-.07-.19-.1-.28-.75-2.28-1.43-4.59-2.2-6.86,0-.17,0-.34.05-.51a4,4,0,0,0-.32-2.69.38.38,0,0,0-.16-.15,1.55,1.55,0,0,1,0-.21c-.05-.35-.58-.38-.73-.09a3.32,3.32,0,0,0-.25.54l-.12.47c-.09.36-.2.71-.27,1.07s-.13.7-.19,1-.11.8-.14,1.2a.7.7,0,0,0,.05.25c-.07.59-.14,1.18-.22,1.77-.27,2.16-.57,4.31-.82,6.47,0,.27-.06.55-.1.82-1-3-1.78-6.18-2.54-9.23s-1.36-5.92-1.9-8.9c-.48-2.68-.77-5.43-1.39-8.09a12,12,0,0,0,.37-2.21,1.14,1.14,0,0,0-.41-.91v0c0-.33.08-.65.09-1a.79.79,0,0,0-.38-.67l0-.38a.38.38,0,0,0-.74-.1l-.15.44a.64.64,0,0,0-.19.13l-.13.17a.5.5,0,0,0-.05.21h0c0,.07,0,.13,0,.2v0c0,.07,0,.15,0,.22s-.05.42-.07.63a1,1,0,0,0-.37.42,21.52,21.52,0,0,0-1.22,4.5c-.35,1.57-.66,3.14-.9,4.73a33.89,33.89,0,0,0-.21,9.38c.41,3,1.22,5.91,1.65,8.9l0,.29c-.14-.65-.26-1.3-.41-2-.76-3.27-1.61-6.51-2.49-9.75a61.43,61.43,0,0,0-2.37-7.49,21.43,21.43,0,0,0-4.16-6.82c-1.53-1.58-3.57-3-5.8-3.05a.75.75,0,0,0-.2-.1,2.58,2.58,0,0,0-.4,0h-.91a1,1,0,0,0-.79.33s0,0,0,.06a.84.84,0,0,0-1,.94c.44,2.75,1.2,5.45,1.82,8.16s1.18,5.45,1.63,8.2a126.42,126.42,0,0,1,1.54,16.72,122.5,122.5,0,0,1-3.65,33.19,124.6,124.6,0,0,1-5,15.4c-77.05,2-151.94,2-203.77-4.51a19.07,19.07,0,0,0-3.1-3.52,7.06,7.06,0,0,0-2.66-1.48,6.79,6.79,0,0,0-3,.16c-1.79.31-5.5-1.67-5.77-3.66a1.1,1.1,0,0,0-1.28-1c-.31-.85-.6-1.7-.89-2.56s-2-1.19-2.2,0c0,.09,0,.18,0,.27a1.23,1.23,0,0,0-.23.56c-.27,2.52-.61,5-.94,7.55,0,.2-.08.4-.11.61-21.95-4.07-37.73-9.8-44.89-17.71-2.67-15.36-9.4-29.88-11.06-45.48a69.48,69.48,0,0,1,.52-16.8c.58-4.31.81-8.5-.81-12.55,14.15-22.54-.06-49-6.1-71.64-7.12-26.73,1.58-53.47.11-80.46a77.74,77.74,0,0,0-3.06-18.31c-.95-3.12-2.45-6.31-2.53-9.63-.08-3.57,2-6.26,3.72-9.19,6.37-10.82,2.69-23.33-2.18-34-1.94-4.24-4.26-8.65-6.21-13.19a18.14,18.14,0,0,1,7.42.21c3.25.75,6.36,1.95,9.58,2.77a25,25,0,0,0,9.66.68c6-.81,11.56-3.42,17.5-4.53a23.53,23.53,0,0,1,10,.36c3.29.81,6.47,2,9.77,2.79,13.54,3.24,27.92,1.66,41.49-.53,7.11-1.14,14.15-2.64,21.12-4.42s13.57-4.17,20.56-5.22c.53-.08,1.07-.14,1.6-.2a90.1,90.1,0,0,0,1,19.2c1.72,11.44,4.82,22.68,4.73,34.33a48.43,48.43,0,0,1-3.58,18.11c-2.08,5.09-4.4,10.14-3.81,15.78s3,10.73,3.15,16.39a58.32,58.32,0,0,1-2.19,15.69c-2.27,9.22-5.58,18.77-4.16,28.39a27,27,0,0,0,1.85,6.61c1.22,2.86,3,5.57,3.23,8.75s-.9,6.05-1.44,9a31.17,31.17,0,0,0-.36,8.73c.82,8,5.53,19.48,15.22,19.59a7.6,7.6,0,0,0,5.42-2.16c1.73-1.69,2.49-4.89,4.89-5.72,2.92-1,6.15,2.19,8.36,3.74a18.49,18.49,0,0,0,6.12,2.88c8.18,2.09,17.48-1.27,22.11-8.33l4.37,4.08a1.38,1.38,0,0,0,1.6.19,379.44,379.44,0,0,1,42.5-16.93,243.63,243.63,0,0,1-14,59.92c-.64,1.74,1.85,2.44,2.78,1.15a399.47,399.47,0,0,0,34.2-56.88l1.65,24.53a1.41,1.41,0,0,0,2.11,1.19c3.41-2.41,4.83-6.18,5.86-10.08s1.59-8.7,4.83-11.35c4.6-3.77,11.31-.35,16.6-1.71,3.37-.86,6.47-3.11,7-6.42a28,28,0,0,0,19.7-1.7c4.18,3.94,9,7.61,14.56,9.3a15,15,0,0,0,7.82.41c2.77-.67,4.64-2.39,6.67-4.25,1.52-1.39,3-1.9,4.9-1,1.51.73,2.81,1.85,4.32,2.59a12.65,12.65,0,0,0,6.28,1.31c4.74-.26,9.06-2.79,13-5.2,4.5-2.73,9-5.91,14.19-7.21,3.21-.81,6.31-.15,9.55-.33a10.89,10.89,0,0,0,6.86-2.81c3.19-2.8,6.38-9.67,11.58-7.93,2.87,1,4.9,3.82,7,5.85a17.79,17.79,0,0,0,5.84,3.89c9.84,3.94,22.38-1.15,26-11.24,0,0,0,0,0-.06a106.57,106.57,0,0,0,15.34-5.31c3,9.23,7.27,19.26,16.21,23,7.64,3.23,18.24-2.59,18.74-9.91a156,156,0,0,0,15.31-45.05q5.4,25.32,10.79,50.66a.7.7,0,0,1,.73-.18c1.31.38,1.47,2.18,1.18,3.51s-.74,2.88.13,3.93l16.46,20a236.65,236.65,0,0,0,6.25-73.1l16.1,39.47,25.48-15.35c2.79-1.68,6.05-3.43,9.15-2.43,21.27,6.86,44.35-11.83,65.48-12.78.1.39.21.77.3,1.16.33,1.45.63,2.92.87,4.39a53.06,53.06,0,0,1,.62,8.81c0,2.89-.36,5.76-.62,8.63-.15,1.52-.26,3-.26,4.59,0,1.33-.08,2.92.77,4a.83.83,0,0,0,1.31.13.8.8,0,0,0,1.31-.37c.3-1.11-.07-2.25,0-3.39a14.64,14.64,0,0,1,1-4c1-2.58,2.14-5.1,3.31-7.59s2.32-4.84,3.56-7.23c.66-1.26,1.33-2.51,2-3.76.28-.53.59-1.07.89-1.6a2.51,2.51,0,0,1,.51-.38l0,0a.86.86,0,0,0,.58-.21,1.39,1.39,0,0,1,.8.07c1.37.5,2.2,2.14,2.84,3.34a20.62,20.62,0,0,1,1.77,4.61c.21.82.38,1.66.52,2.5a11.51,11.51,0,0,0,.45,2.61.86.86,0,0,0,1.64,0,7.15,7.15,0,0,0,.07-3.38c0-.22-.07-.44-.11-.65.17-.62.34-1.24.52-1.86.44-1.47.87-2.94,1.34-4.4s1-2.91,1.54-4.34c.09-.24.21-.49.33-.76a6.32,6.32,0,0,0,1.08-.45,1.12,1.12,0,0,0,.51-1.26c-.11-.37-.26-.72-.38-1.07A82.79,82.79,0,0,0,6137,777.75c18.76,3.46,36.43-1,54.54-5.65a181.88,181.88,0,0,1,20-4.18,243.11,243.11,0,0,0,7.9,53.66,1.07,1.07,0,0,0,2.05,0q3.11-12.66,6.69-25.19c2.27-7.93,4.36-16.13,7.38-23.82a35.35,35.35,0,0,1,1.78-3.81q23.9,11,47.81,22l14.91,6.83a1.36,1.36,0,0,0,1.63-.22c4.58-5.93,12.39-7.21,19.44-6.18,8.46,1.22,15.76,5.88,23.25,9.67a56,56,0,0,0,14.29,5.33,1.33,1.33,0,0,0,1.66-1.28c-.45-4.56,2.77-7.75,6.64-9.57,4.69-2.2,9.67-2.2,14.68-1.46,6.05.89,12.28,2.33,18.38,1a18.23,18.23,0,0,0,4-1.36c.71-.33,1.3-.59,1.6-1.35a26.11,26.11,0,0,0,.66-2.64c.84-3.21,1.82-6.39,2.94-9.51.82-2.3,1.73-4.57,2.7-6.81,4.56-1.08,9.07-2.33,13.51-3.83,1.54-.52,3.06-1.08,4.58-1.66a101.25,101.25,0,0,0,16.49,46.87c.53.79,2,.55,1.92-.53a234.43,234.43,0,0,1,2.94-57.84c1.6-1.2,3.16-2.47,4.65-3.81a96.18,96.18,0,0,0,6.23,13.77,1.05,1.05,0,0,0,1.81,0,42.17,42.17,0,0,0,2.62-26.27,74.17,74.17,0,0,0,8.8-20.45c.56-1.59,1.1-3.18,1.64-4.77h0a41.84,41.84,0,0,0,16.26,11,1.4,1.4,0,0,0,1.7-1.72l-10.72-31.14c.46-1.43.93-2.87,1.4-4.31.48.4,1,.79,1.5,1.15,2.57,1.76,6.24,2.84,9.27,1.67a6.78,6.78,0,0,0,4.11-7.51c-.5-3.61-2.59-6.71-3.89-10a16.22,16.22,0,0,1-.2-11.24,44.27,44.27,0,0,1,6.29,12,1.35,1.35,0,0,0,2.59-.73c-2.37-9.12-4.39-18.33-6-27.61l-.09-.57c1.09-2.49,2.17-5,3.28-7.44q3.83-8.52,7.75-17,4-8.67,8.14-17.27c15-8.94,31.71-13.58,48.75-17.5q-.93,8.13-1.52,16.3a1.39,1.39,0,0,0,2.59.68,13.55,13.55,0,0,1,8.87-7c.5,3.85,1,7.7,1.53,11.56.37,2.8.63,6.55,3.44,8.12,3.34,1.86,5-2.26,5.84-4.67a43.43,43.43,0,0,0,1.54-6,37.24,37.24,0,0,0,14.9,17.55,1.27,1.27,0,0,0,1.88-1.1q-1.15-12.48-1.39-25-.12-6.21,0-12.41c0-2.31.22-4.65.26-7l2-.58c20.51-46.89,37.64-95.16,55.53-143.09,13.51-36.21,21.46-74.72,36.22-110.49h-1.22a146.66,146.66,0,0,0,5.76-19.76c2.64-11,4.88-22.06,8.62-32.75a161,161,0,0,1,14.35-30.38c5.73-9.45,12.67-17.92,19.5-26.58,6.4-8.11,12.54-16.6,16.06-26.4,4-11,4-23,6.54-34.34,2.42-11,7.61-20.91,13-30.66,5.28-9.54,10.57-19,14.13-29.37,7.17-20.85,8.7-43.35,17.32-63.74,1-2.47-1.35-4-1.33-4.73-3.12-.08-6.24,0-9.37.15a62,62,0,0,0-22.67,5.5A1147.32,1147.32,0,0,1,6642.76,42.8c-45.54,1.36-96.28-2.47-135.79,24.55-35,23.93-52.9,64.59-72.05,100.86q-5.72,10.83-11.83,21.43-13.86,4.55-27.69,9.13-55.8,18.54-111.22,38.2t-110.47,40.35q-53.49,20.19-106.58,41.47c-.73-.69-1.47-1.37-2.18-2.09a84,84,0,0,1-13.48-17.95,313.37,313.37,0,0,0-56.78,12.74,247.06,247.06,0,0,0-56.15,27c-4.56,3-10.06,4.05-15.4,5.08l-35.28,6.79c-11.59,2.23-19.08,13.06-26.63,22.13-4.22,5.08-9.68,10.05-15.62,12.74-.1-.14-.21-.28-.32-.41-2.49-3-6.26-3.83-10-4.12-4.89-.38-9.81-.6-14.71-.86-19.82-1.05-39.69-1.86-59.54-1.82a247.47,247.47,0,0,0-28.94,1.5c-4.76.57-9.5,1.33-14.2,2.33s-9.56,2.07-14.46,1.13c-2.26-.44-4.46-1.1-6.71-1.55a32.26,32.26,0,0,0-7-.6,85.34,85.34,0,0,0-14.4,2c-9.81,1.9-19.6,4-29.45,5.7a26.72,26.72,0,0,1-7.08.44,31.14,31.14,0,0,1-6.54-1.88c-4-1.28-7.42-.39-10.71,2.08s-6.36,5.4-9.88,7.7a62.38,62.38,0,0,1-8.37,4.59c-2.42.07-4.85.16-7.27.4a53.92,53.92,0,0,0-17.72,5.11c-10.58,5-20.6,12.56-32.52,13.93-11.76,1.35-25.47-5.39-35.75,3.12a10,10,0,0,0-2.49,3.05,18.53,18.53,0,0,1-8.46,4.58,40.19,40.19,0,0,1-11.74.63c-4.56-.24-9.15-.6-13.67.24-4.13.76-7.93,2.62-11.64,4.51a76.25,76.25,0,0,1-12,5.14,108.49,108.49,0,0,1-12.95,3c-8.24,1.48-16.59,2.5-24.62,4.91a57.3,57.3,0,0,0-11.14,4.52c-1.82-.19-3.63-.43-5.45-.73a3.84,3.84,0,0,0-1.18-.2l-.73-.12a.88.88,0,0,0-.76.2l-.3,0a53.31,53.31,0,0,0-18.63,5.2c-3,1.47-5.8,3.39-8.82,4.88-6.1,3-12.7,1.77-19.15.83a46.56,46.56,0,0,0-9.86-.66,28.32,28.32,0,0,0-9.6,2.49c-2.82,1.27-5.59,3-8.69,3.48-2.49.4-5.48,0-7.18-2-1.08-1.31-1.45-3-2-4.61a11.87,11.87,0,0,0-2.14-4.09c-2.22-2.61-5.4-2.63-8-.64a56.16,56.16,0,0,1-8.62,5.78c-.55.28-1.12.52-1.68.77a6.7,6.7,0,0,0-2.09-1.13,5.52,5.52,0,0,0-3.76,0,3.51,3.51,0,0,0-2.08,0,1,1,0,0,0-.22-.09c-3-.92-4.91-3.67-7.2-5.6a10.44,10.44,0,0,0-8.49-2.59c-3.42.51-6.47,2.3-9.65,3.56a17.45,17.45,0,0,1-10.66.82l-1.07-.25c-.47-.9-.95-1.8-1.41-2.7-.69-1.35-1.38-3.28-3.27-2.68a7,7,0,0,0-.88.41c-.1,0-.19.1-.29.13s0-.06,0-.09a2.15,2.15,0,0,0-.83-1.61,1.63,1.63,0,0,0-1.9.12c-.28.2-.47.49-.73.7l0,0a2.49,2.49,0,0,0-.71-.19.57.57,0,0,1,.09-.22.93.93,0,0,0-1.61-.93.75.75,0,0,1-1.38-.56,1,1,0,0,0-1.78-.73l-.35.64a.74.74,0,0,0-.46.36c-.08.15-.15.3-.23.44a1,1,0,0,0-.78.14c-.87.65-1.58,1.49-2.41,2.19a1,1,0,0,0-.26.12c-.68.47-1.36.91-2.06,1.35a12.91,12.91,0,0,1-1.69.67,1.25,1.25,0,0,0-.87.87,6.23,6.23,0,0,0-2.43,1.49l-.34.2a1.28,1.28,0,0,0-.57.84,40,40,0,0,1-4,1.08,18.89,18.89,0,0,1-5.51.4,30.12,30.12,0,0,1-4.51-.85,19.35,19.35,0,0,1,.31-2.14,26.21,26.21,0,0,1,1.17-4,15.33,15.33,0,0,0,1.32-4.15c.21-2.83-1.86-4.74-3.13-7-1.48-2.68-1.31-6-1.35-9a59.23,59.23,0,0,1,.27-8.83c.05-.07.11-.13.15-.2s.21-.42.31-.64a11.75,11.75,0,0,1,.7-1.25c.12-.19.25-.38.38-.56h0l.12-.15.21-.26c.12-.14.23-.28.34-.43a.64.64,0,0,1,.1-.13h0a3,3,0,0,0,.32-.41l.09-.21c0-.06,0-.11,0-.17l0-.08a.66.66,0,0,0,0-.28,19.47,19.47,0,0,1,6.4-5.84c3.08-1.73,6.57-2.23,9.88-3.34a17.51,17.51,0,0,0,7.71-4.76,17.11,17.11,0,0,0,4-7.89,1.06,1.06,0,0,0-1.55-1.17c-4.52,2.19-7.78,6.84-12.75,8.14a15.11,15.11,0,0,1-4.14.18,7.78,7.78,0,0,0-4,.95c-2.41,1.33-4.12,3.76-5.61,6a31.54,31.54,0,0,0-5.25,17.52,58.42,58.42,0,0,0,.67,9.71,14.78,14.78,0,0,0,1.32,4.15c.63,1.27,1.53,2.39,2.19,3.65,1,1.83.49,3.36-.4,5.11a18.7,18.7,0,0,0-1.68,4.81c-.14.69-.26,1.45-.35,2.23a16.2,16.2,0,0,0-10.88,1.22,28.6,28.6,0,0,0-7.56,6c-1.58.38-3.55.74-5.93,1.08-.13-1.37-.29-2.75-.52-4.11-.3-1.74-.52-3.75-1.48-5.28-1.83-2.9-5.55-2.21-8-.64s-4.93,5.65-8.4,5.2c-2.58-.34-4.16-3.14-5.63-5-1.72-2.18-3.83-4.09-6.78-4.07-3.72,0-6.85,2.64-9.86,4.5a45.66,45.66,0,0,1-10.74,4.94,29.93,29.93,0,0,1-11.43,1.29,26.11,26.11,0,0,1-5.92-1.37,18.89,18.89,0,0,0-5.57-1.38c-3.56-.11-6,2.4-8.67,4.29-.23.16-.47.31-.71.46a51.14,51.14,0,0,0,2.41-8.13,5,5,0,0,0-.46-3.23c-.62-1.11-1.61-1.86-2-3.12a20.73,20.73,0,0,1-.61-4.38c-.13-1.28,0-3-.82-4.07a.5.5,0,0,0-.43-.19l-.09-.89v0a.48.48,0,0,0-.1-.29s0,0,0-.05c0-.4-.65-.5-.72-.09v0a.39.39,0,0,0-.15.16,5.81,5.81,0,0,0-.57,2.67.5.5,0,0,0-.28.4c-.27,1.83,0,3.74-.18,5.59a29.83,29.83,0,0,1-1.22,5.91,27.19,27.19,0,0,1-2.31,5.38l-.43.71a3.35,3.35,0,0,0-.55.3,11,11,0,0,0-1.74,1.52,9.85,9.85,0,0,0-1.38,1.89,1.44,1.44,0,0,0-.71.55,68.24,68.24,0,0,0-7.48-1.49,17.7,17.7,0,0,0-4.93.07c-2,.33-3.9,1.08-5.9,1.4a7.32,7.32,0,0,1-.93.09,10,10,0,0,1,.19-3.25,6.3,6.3,0,0,0,0-3.05c-.32-1.18-1-2.18-.88-3.43A1.18,1.18,0,0,0,5058,458a3.12,3.12,0,0,1-4.35-3.83c.37-1.25-1.38-1.86-2-.84a2.21,2.21,0,0,1-2.28,1,1.06,1.06,0,0,0-.93.54,5.34,5.34,0,0,1-1.13,1.51l-.15,0c0-.36,0-.73,0-1.09,0-.91.09-2.06-.66-2.68a3.91,3.91,0,0,0-4.95.17,38.5,38.5,0,0,0-4.76,5l-.08.09a44.93,44.93,0,0,0-6.06,3.82c-2.84,2.05-6,4.41-9.52,5a9.63,9.63,0,0,1-8-2.31,5.09,5.09,0,0,1-1.56-3.65.88.88,0,0,0-1.49-.6l-13.11,11.61c-.71-1-1.43-2-2.14-3a.85.85,0,0,0-1.44,0q-2,3.28-3.83,6.6h-.76a30.94,30.94,0,0,0-8.09-4c-10.67-3.6-22.77-4.39-33.92-5.41-26.11-2.37-52.11-1-78,2.76-13.35,1.95-26.66,3.88-40.19,3.83s-26.85-1.62-40.14-3.55c-16.19-2.36-32.29-5.1-48.52-6.6-.05-.21-.11-.42-.16-.63-.6-2.61-1-7.26-4.82-6.67a11.21,11.21,0,0,0-3.64,1.7,4.21,4.21,0,0,1-1.89.69c-1,0-1.49-.77-2-1.47-.89-1.19-1.91-2.13-3.5-1.82-1.37.26-2.79,1.75-4.21,1.59-.07-.71-.15-1.43-.22-2.14a.75.75,0,0,0-.74-.73c-2.26,0-3.86,1.42-5.68,2.54-1,.6-2.59,1.44-3.72.72-.72-.45-1.22-1.81-.31-2.3s.09-1.71-.77-1.3c-2.1,1-2.64,3.37-3.76,5.19-.71,1.14-1.84,1.94-3.16,1.07-1.84-1.22-1.58-3.8-1.42-5.7a.82.82,0,0,0-1.39-.56,53.67,53.67,0,0,0-6.9,10c-19.34,1.69-38.58,4.61-57.93,6.21a280,280,0,0,1-39.07.76c-13.41-.76-26.75-2.46-40.08-4.05-19.55-2.32-39.07-3.32-58.67-3.95a62.87,62.87,0,0,0-8.88-4.8,19.07,19.07,0,0,0-10.28-1.58,21.84,21.84,0,0,0-5.2,1.7,12.73,12.73,0,0,1-5,1.43c-3.4,0-5-3.65-7.37-5.45-2.63-2-6-2.07-9.13-1.51-4.08.74-7.86,2.95-12.05,3.08-3.06.1-6.58-1.51-7.29-4.63a3.11,3.11,0,0,0-.16-1.11,1,1,0,0,0-1.92.28,5.3,5.3,0,0,0,.12,1.38,2.84,2.84,0,0,1-1.71,1.36,5.24,5.24,0,0,1-3.37-.59c-1.79-.78-3.46-1.75-5.47-1.78a4.42,4.42,0,0,0-4,2,10.73,10.73,0,0,0-.84,2.72c-.12.44-.24,1-.7,1.14a1,1,0,0,1-.45,0l-.14,0a1.06,1.06,0,0,0-2.06-.42c-.52,1.55-1.07,3.09-1.58,4.64l-15.68-.35c-54.1-1.26-108.3-3.49-162.42-2.78l-9.23.14a32.86,32.86,0,0,0-4.66,0l-1.34-.16a1.4,1.4,0,0,0-1.75-.81,1.32,1.32,0,0,0-.73.51c-3.36-.44-6.12-.88-8.22-1.32,40.17,55.1-7.86,545.48-7.86,545.48l1498.32,1.87,152.79.19h2779.9A51.85,51.85,0,0,1,8608.12,977.23ZM6482.05,685.33l1,.9-.59,1.17L6482,686C6482,685.79,6482,685.56,6482.05,685.33ZM5382.22,626.69a24.63,24.63,0,0,1,1.55-11.68c3.68-9.29,13.18-17.85,11.35-28.64-.53-3.17-2.22-5.84-3.46-8.74a16.71,16.71,0,0,1-.44-11.33c1.93-7.19,5.27-13.61,5.72-21.18a49.54,49.54,0,0,0-.65-11.17,37.51,37.51,0,0,0,10.84-2.61,33.68,33.68,0,0,0,10.34-7.44,87.39,87.39,0,0,0,8.35-10.34,22.77,22.77,0,0,0,17,2.88,21.4,21.4,0,0,0,8.45-3.93,85.66,85.66,0,0,0,6.5-5.84c3.87-3.64,9-7.77,14.42-4.63,2.64,1.52,4.5,4.11,6.23,6.54a31.1,31.1,0,0,0,6.24,7.1c2.49,1.89,5.53,3.18,8.7,2.57,2.9-.57,4.92-2.79,6.45-5.17s2.83-5.22,5.39-6.78a11.59,11.59,0,0,1,8.07-1.16c6.6,1.19,11.32,5.68,16.11,10,3.88,3.51,8,6.74,12.85,8.39a17.4,17.4,0,0,0-2.61,8.75c-.21,6.84,2.95,13.15,4.71,19.6,2.17,8,.3,15.2-2.06,22.91-1.82,5.9-3.36,11.77-2.48,18,.71,5,3,9.9,7.27,12.58a29.59,29.59,0,0,0-8.05,10.18,111.8,111.8,0,0,1-11.29-2.75,43.92,43.92,0,0,0-10.56-2.2,27.42,27.42,0,0,0-8.21.94c-5.73,1.48-11,4.38-16.21,7s-10.45,5.16-16.19,5.75c-6.62.67-13-1.38-19.21-3.45-6.37-2.14-12.78-4.3-19.58-4.34-7.28,0-14.39,2-21.29,4.1-7.94,2.46-15.81,4.82-24.13,5.65A87.72,87.72,0,0,1,5382.22,626.69Zm307,350.16a41.66,41.66,0,0,0,2.48-6l.39-1.1a35.16,35.16,0,0,0,.29,4.1,27.4,27.4,0,0,0,.5,2.94Zm14.94-.43v0l-.56.14a5,5,0,0,1-2.5,0l-.76,0a69,69,0,0,1-1.28-9.75,59,59,0,0,1,.87-12.79c.74-4.1,1.9-8.11,2.75-12.19.26-1.26.49-2.53.66-3.8a1,1,0,0,0,.59.22l.14-.07a1,1,0,0,0,.46.34c1.52.56,3.33.5,4.93.81a14.08,14.08,0,0,1,4.46,1.55c3.06,1.8,4.6,5.77,5.84,8.93a127.45,127.45,0,0,1,4.41,15c.12,1.42.26,2.83.49,4.23a19.92,19.92,0,0,0,2.21,6.72Q5715.5,976.07,5704.13,976.42Zm28.86-1c-.09-.2-.19-.39-.28-.59a.86.86,0,0,0,0-.16A4.91,4.91,0,0,0,5732,973a36.35,36.35,0,0,1-1.29-5.31,67.87,67.87,0,0,1-.65-12.66c.07-3.61.22-7.23.2-10.84q3.16,11.56,6.37,23.11c.74,2.63,1.42,5.29,2.13,7.94Zm116.32-5.22a.94.94,0,0,0-.49-.51c.16-.26.32-.52.49-.77,0,.39,0,.77,0,1.15C5849.3,970.15,5849.31,970.2,5849.31,970.24Zm2086-260.77a13.41,13.41,0,0,1-5-1.73,3.81,3.81,0,0,1-1.49-2,4.66,4.66,0,0,1-.12-.65,1.3,1.3,0,0,0,1.23-1,4.73,4.73,0,0,1,4.15-3.24,9.06,9.06,0,0,1,6.48,2.44,37.29,37.29,0,0,1,4.7,5,21.34,21.34,0,0,1,2,2.82c.08.13.17.28.25.43.17.35.33.7.5,1.06Q7941.74,710.8,7935.31,709.47Z" transform="translate(-0.96 12.08)"/><path d="M6098.62,365c-5.1-6.05-10.15-12.13-15.32-18.12-.1-.12-.26.05-.17.17,5.06,6.07,10.24,12.06,15.36,18.08.08.09.21,0,.13-.13Z" transform="translate(-0.96 12.08)"/></svg>